<svg xmlns="http://www.w3.org/2000/svg" width="974" height="238" style=""><rect id="backgroundrect" width="100%" height="100%" x="0" y="0" fill="none" stroke="none" style="" class=""/><defs><style>.cls-1{fill:#c6c6cd;}</style></defs><g class="currentLayer" style=""><title>Layer 1</title><path id="ahrefs" class="cls-1 selected" d="M867.9263916015625,211.64395141601562 l52.95926284790039,0 V185.18418884277344 h-26.479631423950195 V158.7144775390625 L867.9263916015625,158.5953369140625 V132.1355743408203 l-26.469701766967773,0 V79.3748779296875 L867.9263916015625,79.16636657714844 V52.85551452636719 l79.42896270751953,0.10921482741832733 v26.290987014770508 l-52.94933319091797,0 v26.469701766967773 h26.479631423950195 v26.499488830566406 l26.261201858520508,0.09928620606660843 v26.499488830566406 l26.68813133239746,0 v52.79047393798828 l-26.479631423950195,0 l-0.20850102603435516,26.499488830566406 H867.9263916015625 zM841.456787109375,185.40261840820312 l26.261201858520508,0 v26.290987014770508 l-26.261201858520508,0 zM947.5738525390625,79.4642333984375 l26.261201858520508,-0.08935758471488953 v26.290987014770508 l-26.261201858520508,0.08935758471488953 zm-202.29563903808594,-0.17871516942977905 H718.80859375 V52.80586624145508 h26.469701766967773 V26.544675827026367 l26.479631423950195,-0.18864378333091736 V0.03525996208190918 l79.42896270751953,-0.17871516942977905 v26.281057357788086 l-52.94933319091797,0.18864378333091736 v26.479631423950195 h26.469701766967773 v26.479631423950195 H798.237548828125 v158.85792541503906 H745.2781982421875 zm-47.657379150390625,79.42896270751953 v-79.42896270751953 H671.1611328125 V52.80586624145508 H565.25244140625 v26.479631423950195 H538.7728271484375 V211.66383361816406 h26.479631423950195 v26.479631423950195 H671.1611328125 V211.66383361816406 h-79.42896270751953 V158.7144775390625 zm-105.89866638183594,-79.42896270751953 h52.94933319091797 v52.94933319091797 H591.732177734375 zM697.6307373046875,211.66383361816406 H671.1611328125 V185.18418884277344 h26.469701766967773 zM383.4096374511719,52.80586624145508 h52.94933319091797 v26.479631423950195 H462.8385925292969 V52.80586624145508 h52.94933319091797 v52.94933319091797 h-79.42896270751953 V238.14344787597656 H383.4096374511719 zM193.06808471679688,-0.143463134765625 h52.94933319091797 v52.94933319091797 h79.42896270751953 v26.479631423950195 h26.479631423950195 v158.85792541503906 H299.016357421875 v-158.85792541503906 H246.01739501953125 v158.85792541503906 H193.06808471679688 zM26.644550323486328,132.23486328125 h79.42896270751953 V79.28550720214844 h-79.42896270751953 V52.80586624145508 H132.543212890625 v26.479631423950195 H159.02285766601562 v158.85792541503906 H26.664409637451172 V211.64395141601562 H0.16492462158203125 V158.7144775390625 h26.479631423950195 zm26.469701766967773,26.479631423950195 v52.94933319091797 h52.95926284790039 V158.7144775390625 zm-52.94933319091797,-79.42896270751953 h26.479631423950195 v26.469701766967773 H0.16492462158203125 z"/></g></svg>