<svg color="#2F3034" xmlns="http://www.w3.org/2000/svg" width="121" height="28" data-reactid="41" style=""><rect id="backgroundrect" width="100%" height="100%" x="0" y="0" fill="none" stroke="none" style="" class=""/><g class="currentLayer" style=""><title>Layer 1</title><path d="M110.96299743652344,19.878999710083008 c-5.480000019073486,0 -9.9399995803833,-4.459000110626221 -9.9399995803833,-9.939000129699707 V0 h19.878999710083008 v9.939000129699707 c0,5.480999946594238 -4.459000110626221,9.9399995803833 -9.939000129699707,9.9399995803833 zm-8.131999969482422,-18.07200050354004 v8.131999969482422 c0,4.482999801635742 3.6459999084472656,8.131999969482422 8.131999969482422,8.131999969482422 c4.482999801635742,0 8.131999969482422,-3.6480000019073486 8.131999969482422,-8.131999969482422 V1.8070001602172852 h-16.263999938964844 z" data-reactid="42" id="svg_1" class="" fill="#c6c6cd" fill-opacity="1"/><path d="M114.92955338954926,6.02400016784668 h-9.03499984741211 v1.8070000410079956 h1.2350000143051147 l-0.625,5.007999897003174 h1.8209999799728394 l0.6259999871253967,-5.007999897003174 h2.9230000972747803 l0.6259999871253967,5.007999897003174 h1.8209999799728394 l-0.6259999871253967,-5.007999897003174 h1.2339999675750732 zM10.29254949092865,2.5290000438690186 c5.421000003814697,0 8.312999725341797,2.5299999713897705 8.312999725341797,6.144000053405762 c0,2.8929998874664307 -2.1679999828338623,5.061999797821045 -5.059999942779541,5.855000019073486 v0.07199999690055847 c4.51800012588501,1.1200000047683716 6.144000053405762,3.759000062942505 6.144000053405762,6.540999889373779 c0,3.9769999980926514 -2.8910000324249268,6.686999797821045 -8.312000274658203,6.686999797821045 H-0.5494505167007446 V27.106000900268555 c2.1679999828338623,0 2.1679999828338623,0 2.1679999828338623,-2.3510000705718994 V5.6020002365112305 c0,-2.3499999046325684 0,-2.3499999046325684 -2.1679999828338623,-2.3499999046325684 v-0.7229999899864197 h10.842000007629395 zM8.124549269676208,14.455999374389648 c3.253000020980835,0 4.51800012588501,-2.1679999828338623 4.51800012588501,-5.6020002365112305 c0,-3.072000026702881 -1.2649999856948853,-5.603000164031982 -3.434000015258789,-5.603000164031982 h-1.8070000410079956 V14.455999374389648 h0.7229999899864197 zm-0.7229999899864197,0.7229999899864197 v11.928000450134277 h2.5299999713897705 c2.8910000324249268,0 3.7950000762939453,-2.8929998874664307 3.7950000762939453,-6.144999980926514 c0,-3.253000020980835 -1.6269999742507935,-5.7829999923706055 -4.879000186920166,-5.7829999923706055 h-1.4459999799728394 zm13.951000213623047,3.7950000762939453 c0,-6.144000053405762 5.059999942779541,-9.576000213623047 9.57800006866455,-9.576000213623047 c4.156000137329102,0 7.914999961853027,1.8070000410079956 6.829999923706055,7.949999809265137 H27.0635484457016 c0,4.879000186920166 2.7829999923706055,6.685999870300293 5.493000030517578,6.685999870300293 c3.253000020980835,0 4.698999881744385,-1.8070000410079956 5.421000003814697,-3.071000099182129 h0.3610000014305115 c-0.722000002861023,3.614000082015991 -3.252000093460083,7.228000164031982 -7.769999980926514,7.228000164031982 c-5.9629998207092285,-0.0010000000474974513 -9.215999603271484,-4.3379998207092285 -9.215999603271484,-9.217000007629395 zm5.710999965667725,-2.3499999046325684 h5.311999797821045 c0.6150000095367432,-2.4560000896453857 1.121000051498413,-6.505000114440918 -1.6260000467300415,-6.505000114440918 c-2.059999942779541,0 -3.5420000553131104,1.9160000085830688 -3.686000108718872,6.505000114440918 zm26.0939998626709,-2.1679999828338623 c0,-1.6260000467300415 -1.0839999914169312,-2.1679999828338623 -2.1679999828338623,-2.1679999828338623 c-1.121000051498413,0 -2.3499999046325684,0.5419999957084656 -3.614000082015991,1.6269999742507935 V24.756000518798828 c0,2.3510000705718994 0,2.3510000705718994 2.1679999828338623,2.3510000705718994 v0.722000002861023 h-10.119999885559082 v-0.722000002861023 c2.1679999828338623,0 2.1679999828338623,0 2.1679999828338623,-2.3510000705718994 V13.371999740600586 c0,-1.8070000410079956 0,-1.8070000410079956 -1.8070000410079956,-1.8070000410079956 v-0.5429999828338623 l7.409999847412109,-1.625 h0.289000004529953 l-0.1080000028014183,3.7939999103546143 h0.0729999989271164 c1.3730000257492065,-2.3499999046325684 3.9749999046325684,-3.7939999103546143 6.613999843597412,-3.7939999103546143 c2.4210000038146973,0 4.879000186920166,1.444000005722046 4.879000186920166,5.419000148773193 v9.939000129699707 c0,2.3510000705718994 0,2.3510000705718994 2.1679999828338623,2.3510000705718994 v0.722000002861023 h-9.395999908447266 V27.106000900268555 c1.4450000524520874,0 1.4450000524520874,0 1.4450000524520874,-2.3510000705718994 V14.455999374389648 zm19.263999938964844,9.57699966430664 c3.253000020980835,0 4.698999881744385,-1.8070000410079956 5.421999931335449,-3.071000099182129 h0.3610000014305115 c-0.7229999899864197,3.614000082015991 -3.253000020980835,7.228000164031982 -7.770999908447266,7.228000164031982 c-5.9629998207092285,0 -9.215999603271484,-4.336999893188477 -9.215999603271484,-9.215999603271484 c0,-6.144000053405762 5.059999942779541,-9.576000213623047 9.57800006866455,-9.576000213623047 c4.517000198364258,0 6.9019999504089355,2.2039999961853027 6.9019999504089355,4.51800012588501 c0,1.2640000581741333 -0.578000009059906,2.5290000438690186 -2.746999979019165,2.5290000438690186 c-1.8070000410079956,0 -2.2049999237060547,-1.1200000047683716 -2.1679999828338623,-1.8799999952316284 c0.18000000715255737,-2.638000011444092 0,-4.445000171661377 -2.1689999103546143,-4.445000171661377 c-2.5299999713897705,0 -3.686000108718872,3.3610000610351562 -3.686000108718872,7.553999900817871 c0.0010000000474974513,4.73199987411499 2.7850000858306885,6.359000205993652 5.49399995803833,6.359000205993652 zm19.80699920654297,-9.57699966430664 c0,-1.6260000467300415 -1.0839999914169312,-2.1679999828338623 -2.1679999828338623,-2.1679999828338623 c-1.121000051498413,0 -2.3499999046325684,0.5419999957084656 -3.615000009536743,1.6269999742507935 V24.756000518798828 c0,2.3510000705718994 0,2.3510000705718994 2.1679999828338623,2.3510000705718994 v0.722000002861023 h-10.119999885559082 v-0.722000002861023 c2.1679999828338623,0 2.1679999828338623,0 2.1679999828338623,-2.3510000705718994 V3.9759998321533203 c0,-1.8070000410079956 0,-1.8070000410079956 -1.8070000410079956,-1.8070000410079956 V1.625999927520752 L86.15555131435394,0 h0.289000004529953 v13.190999984741211 h0.07199999690055847 c1.3730000257492065,-2.3499999046325684 3.9760000705718994,-3.7939999103546143 6.613999843597412,-3.7939999103546143 c2.421999931335449,0 4.879000186920166,1.444000005722046 4.879000186920166,5.419000148773193 v9.939000129699707 c0,2.3510000705718994 0,2.3510000705718994 2.1679999828338623,2.3510000705718994 v0.722000002861023 h-9.397000312805176 V27.106000900268555 c1.4459999799728394,0 1.4459999799728394,0 1.4459999799728394,-2.3510000705718994 V14.455999374389648 z" data-reactid="43" id="svg_2" class="" fill="#c6c6cd" fill-opacity="1" opacity="1"/></g></svg>