<svg clip-rule="evenodd" fill-rule="evenodd" stroke-linejoin="round" stroke-miterlimit="1.41421" xmlns="http://www.w3.org/2000/svg" width="560" height="400" style=""><rect id="backgroundrect" width="100%" height="100%" x="0" y="0" fill="none" stroke="none"/><g class="currentLayer" style=""><title>Layer 1</title><g fill="#c6c6cd" fill-rule="nonzero" id="svg_1" class="selected" fill-opacity="1"><path d="m139.1826397266159,224.54735405077372 c-9.933756649494171,0.06061275484612594 -18.923301023276508,-5.878089825725738 -22.766150391038536,-15.038697303411482 s-1.7820148600067114,-19.73416527445488 5.222125485898118,-26.780060935876463 c7.00279317233867,-7.045895661421582 17.564228654977796,-9.171382939387513 26.74773390849532,-5.383759338252162 s15.176086527505504,12.740800069113902 15.176086527505504,22.674556718608073 c0.022898152165277352,13.497786369507594 -10.882010124766566,24.468695177296468 -24.37979649427416,24.527959253242443 m0,-58.24212260306558 c-13.635175593601616,-0.07138835202795413 -25.967849189994013,8.088435229429251 -31.234423696265367,20.664907741332627 c-5.267921679837514,12.577820006607453 -2.429897924695922,27.089858831750462 7.185978590372088,36.75691943217771 c9.617223206927292,9.667060600427249 24.114446655359643,12.580513711463936 36.7192049950836,7.378592617679033 s20.827889088390748,-17.49149348564606 20.827889088390748,-31.126667794696004 c0,-18.52999185409317 -14.970003333640307,-33.5767702720741 -33.49864897758107,-33.67375135421753 " stroke-width="0" id="svg_2" fill="#c6c6cd"/><path d="m263.57347517381277,168.24483928164625 c-0.30979851807871484,0.0026939002362907916 -0.5953519261905313,0.16567486123896558 -0.7542920335458518,0.43102400769984683 l-34.52232875793834,46.94120733249656 l-34.52232875793834,-46.94120733249656 c-0.16163400288744256,-0.2693900148479642 -0.45392218495402403,-0.43371791326752884 -0.7677615212420221,-0.43102400769984683 c-0.5010654320328598,0 -0.9091913026207692,0.40139112673982424 -0.9159260464688543,0.902456558772684 v62.53889142610933 h9.132321649865162 v-36.93337058806992 l26.53491709476475,35.82887195470812 c0.1333480546401411,0.1602870601391615 0.33000276969409015,0.25322660151299203 0.5387800296959284,0.25322660151299203 s0.4054319650202274,-0.09293955140939048 0.5387800296959284,-0.25322660151299203 l26.53491709476475,-35.82887195470812 v36.93337058806992 h9.132321649865162 v-62.53889142610933 c-0.004040850197630563,-0.24245101938450375 -0.10371515360899863,-0.47412641649827947 -0.27747171147989036,-0.6438421059820882 c-0.1751035006191728,-0.16971570955492865 -0.4094728033006305,-0.2626552509287592 -0.6519238226851343,-0.25861441264835605 " stroke-width="0" id="svg_3" fill="#c6c6cd"/><path d="m320.33394963436876,199.76347099878694 h-21.281811112775813 v-22.35937141302111 h21.281811112775813 c6.166337440472034,0 11.166215897676466,4.9998784572044315 11.166215897676466,11.166215897676466 s-4.9998784572044315,11.166215897676466 -11.166215897676466,11.166215897676466 m0,-31.51863075372694 h-30.441071738033315 v63.44134549606315 h9.132321649865162 v-22.709578735397372 h21.281811112775813 c11.24029856171228,0 20.352414856050473,-9.11211693661403 20.352414856050473,-20.352414856050473 s-9.11211693661403,-20.352414856050473 -20.352414856050473,-20.352414856050473 " stroke-width="0" id="svg_4" fill="#c6c6cd"/><path d="m63.7803763108368,224.54735405077372 c-11.508340820931608,0.06465360316208901 -21.514832639757515,-7.881004540859976 -24.059221209870884,-19.103792094177606 c-2.5443887306823285,-11.224135048021708 3.0562297448436766,-22.708229956141622 13.468153046982934,-27.612476110458374 c10.410577091986852,-4.905592043331239 22.832150655953228,-1.9113221666864888 29.8659240032448,7.196754052073857 l6.559646609655374,-6.478829683478352 c-9.052851576116382,-10.937234285703653 -23.993220944956192,-15.02253378972091 -37.35092438551328,-10.211228160262863 c-13.359050935261166,4.811305629458047 -22.263736541030084,17.48341108652494 -22.263736541030084,31.68161210078506 s8.90468689032059,26.870305829051176 22.263736541030084,31.68161210078506 c13.357703440557088,4.811305629458047 28.298074736224407,0.7260060451563106 37.35092438551328,-10.211228160262863 l-6.559646609655374,-6.478829683478352 c-4.586364895907877,6.010090997830957 -11.714424014796805,9.53640628075027 -19.27485584035685,9.53640628075027 " stroke-width="0" id="svg_5" fill="#c6c6cd"/><path d="m448.9272729500808,194.1736287878075 l-6.990670858208659,-1.5894009932687254 c-7.515981199497219,-1.616340129230025 -8.081700325012207,-6.734750270843506 -8.081700325012207,-8.33762091237736 c0,-5.185757580094332 4.1351365763792955,-8.162517251189229 11.341319558864598,-8.162517251189229 c7.4082252979278564,0 12.822965132270838,5.024123727740289 14.479713082313538,6.734750270843506 l6.424951732693671,-6.317195831124309 c-6.034336268366815,-6.330664997682561 -12.86337327422143,-9.428650379180908 -20.904665457283045,-9.428650379180908 c-12.243776197921761,0 -20.473640566453923,6.882914956639297 -20.473640566453923,17.133205048700347 c0,3.2596192338523906 0,13.17317117009543 16.459730021615997,17.22749114143562 l7.650676076458922,1.804913117545368 c7.098426759778022,1.9530776427722003 10.546618821376796,5.387800216674805 10.546618821376796,10.479271704033863 c0,5.966988508748045 -5.751476705609321,10.1290643816576 -13.96787190758323,10.1290643816576 c-8.795584136322987,0 -14.210323328390132,-6.047805434925067 -15.826663136482239,-8.081700325012207 l-6.344134806516649,6.249848071505539 c4.323709725263598,4.929837313867097 11.704995405523277,10.77560043334961 22.265085320285834,10.77560043334961 c13.159702645813013,0 23.086723106338468,-8.21639520197391 23.086723106338468,-19.099752179168718 c0,-9.751918083888995 -6.734750270843506,-16.513607972400678 -19.598123545064936,-19.544245594280255 " stroke-width="0" id="svg_6" fill="#c6c6cd"/><path d="m510.3886104987032,194.1736287878075 l-6.990670858208659,-1.5894009932687254 c-7.515981199497219,-1.616340129230025 -8.081700325012207,-6.734750270843506 -8.081700325012207,-8.33762091237736 c0,-5.185757580094332 4.1351365763792955,-8.162517251189229 11.341319558864598,-8.162517251189229 c7.4082252979278564,0 12.822965132270838,5.024123727740289 14.46624327347945,6.734750270843506 l6.4384215415277595,-6.317195831124309 c-6.034336268366815,-6.330664997682561 -12.876843083055519,-9.428650379180908 -20.904665457283045,-9.428650379180908 c-12.243776197921761,0 -20.473640566453923,6.882914956639297 -20.473640566453923,17.133205048700347 c0,3.2596192338523906 0,13.17317117009543 16.459730021615997,17.22749114143562 l7.691084860685351,1.7645044938878982 c7.0849575932197695,1.9530776427722003 10.533149654818544,5.387800216674805 10.533149654818544,10.479271704033863 c0,5.966988508748045 -5.738007539051068,10.1290643816576 -13.954402098749142,10.1290643816576 c-8.795584136322987,0 -14.22379313722422,-6.047805434925067 -15.826663136482239,-8.081700325012207 l-6.4384215415277595,6.317195831124309 c4.323709725263598,4.929837313867097 11.704995405523277,10.77560043334961 22.265085320285834,10.77560043334961 c13.159702645813013,0 23.086723106338468,-8.21639520197391 23.086723106338468,-19.099752179168718 c0,-9.751918083888995 -6.734750270843506,-16.513607972400678 -19.598123545064936,-19.544245594280255 " stroke-width="0" id="svg_7" fill="#c6c6cd"/><path d="m367.3020914463268,206.24230003998946 l10.452332728641522,-19.93486105860711 l10.465801895199775,19.93486105860711 zm10.452332728641522,-38.56317892044444 c-0.35963565065411274,0.0026939002362907916 -0.6842506493550786,0.21281811835336129 -0.8351090400073531,0.5387800296959284 l-33.283134605339,63.468285113731326 h10.331107018238072 l8.512724573565492,-16.257686742759688 h30.53535783076859 l8.526193740123745,16.257686742759688 h10.317637209403983 l-33.26966736560826,-63.468285113731326 c-0.1535523062555164,-0.3232680057748851 -0.4768203220659615,-0.5320452858478433 -0.8351090400073531,-0.5387800296959284 z" stroke-width="0" id="svg_8" fill="#c6c6cd"/><path d="m124.7837403591002,207.9529272253685 l6.451890708086012,6.492299492312441 l22.33243179535293,-22.453657505756382 l-6.4653605169201,-6.492299492312441 z" stroke-width="0" id="svg_9" fill="#c6c6cd"/></g></g></svg>