<svg clip-rule="evenodd" fill-rule="evenodd" stroke-linejoin="round" stroke-miterlimit="1.41421" xmlns="http://www.w3.org/2000/svg" width="500" height="67" style=""><rect id="backgroundrect" width="100%" height="100%" x="0" y="0" fill="none" stroke="none" style="" class=""/><g style="" class="currentLayer"><title>Layer 1</title><g fill="#c6c6cd" id="svg_1" fill-opacity="1" class=""><path d="m109.18240356445312,58.04751896858215 c-9.933756828308105,0.060612753033638 -18.923301696777344,-5.878089904785156 -22.766149520874023,-15.038697242736816 s-1.7820148468017578,-19.73416519165039 5.22212553024292,-26.780061721801758 c7.002793312072754,-7.045895576477051 17.564228057861328,-9.171382904052734 26.74773406982422,-5.383759498596191 s15.17608642578125,12.740799903869629 15.17608642578125,22.674556732177734 c0.022898152470588684,13.497786521911621 -10.882010459899902,24.46869468688965 -24.379796981811523,24.5279598236084 m0,-58.242122650146484 c-13.635175704956055,-0.0713883489370346 -25.967849731445312,8.088435173034668 -31.234424591064453,20.664907455444336 c-5.267921447753906,12.57781982421875 -2.4298980236053467,27.089859008789062 7.185978412628174,36.756919860839844 c9.617222785949707,9.667060852050781 24.11444664001465,12.580513954162598 36.71920394897461,7.378592491149902 s20.82788848876953,-17.491493225097656 20.82788848876953,-31.126667022705078 c0,-18.529991149902344 -14.970003128051758,-33.5767707824707 -33.49864959716797,-33.67375183105469 " stroke-width="0" id="svg_2" fill="#c6c6cd"/><path d="m233.57327270507812,1.7450082302093506 c-0.3097985088825226,0.00269390014000237 -0.5953519344329834,0.1656748652458191 -0.7542920112609863,0.4310240149497986 l-34.5223274230957,46.94120788574219 l-34.5223274230957,-46.94120788574219 c-0.16163399815559387,-0.2693900167942047 -0.45392218232154846,-0.43371790647506714 -0.7677615284919739,-0.4310240149497986 c-0.5010654330253601,0 -0.9091913104057312,0.4013911187648773 -0.9159260392189026,0.9024565815925598 v62.53889083862305 h9.13232135772705 v-36.93336868286133 l26.5349178314209,35.82887268066406 c0.13334804773330688,0.1602870672941208 0.3300027549266815,0.2532266080379486 0.5387800335884094,0.2532266080379486 s0.40543195605278015,-0.09293954819440842 0.5387800335884094,-0.2532266080379486 l26.5349178314209,-35.82887268066406 v36.93336868286133 h9.13232135772705 v-62.53889083862305 c-0.004040850326418877,-0.242451012134552 -0.10371515154838562,-0.4741264283657074 -0.27747172117233276,-0.6438421010971069 c-0.17510350048542023,-0.16971570253372192 -0.409472793340683,-0.26265525817871094 -0.6519238352775574,-0.2586144208908081 " stroke-width="0" id="svg_3" fill="#c6c6cd"/><path d="m290.3337097167969,33.2636444568634 h-21.281810760498047 v-22.359371185302734 h21.281810760498047 c6.166337490081787,0 11.166215896606445,4.999878406524658 11.166215896606445,11.166215896606445 s-4.999878406524658,11.166215896606445 -11.166215896606445,11.166215896606445 m0,-31.518630981445312 h-30.441072463989258 v63.44134521484375 h9.13232135772705 v-22.709579467773438 h21.281810760498047 c11.2402982711792,0 20.352415084838867,-9.112116813659668 20.352415084838867,-20.352415084838867 s-9.112116813659668,-20.352415084838867 -20.352415084838867,-20.352415084838867 " stroke-width="0" id="svg_4" fill="#c6c6cd"/><path d="m33.78015899658203,58.04751896858215 c-11.508340835571289,0.06465360522270203 -21.514833450317383,-7.881004333496094 -24.059221267700195,-19.103792190551758 c-2.544388771057129,-11.224135398864746 3.056229829788208,-22.708229064941406 13.46815299987793,-27.612476348876953 c10.410576820373535,-4.90559196472168 22.832151412963867,-1.9113221168518066 29.865924835205078,7.196753978729248 l6.5596466064453125,-6.478829860687256 c-9.052851676940918,-10.937233924865723 -23.993221282958984,-15.022533416748047 -37.35092544555664,-10.211228370666504 c-13.359050750732422,4.811305522918701 -22.263736724853516,17.48341178894043 -22.263736724853516,31.681612014770508 s8.90468692779541,26.87030601501465 22.263736724853516,31.681612014770508 c13.35770320892334,4.811305522918701 28.29807472229004,0.726006031036377 37.35092544555664,-10.211228370666504 l-6.5596466064453125,-6.478829860687256 c-4.58636474609375,6.0100908279418945 -11.714424133300781,9.536406517028809 -19.274856567382812,9.536406517028809 " stroke-width="0" id="svg_5" fill="#c6c6cd"/><path d="m418.9270324707031,27.673800706863403 l-6.990670680999756,-1.5894010066986084 c-7.515981197357178,-1.616340160369873 -8.081700325012207,-6.734750270843506 -8.081700325012207,-8.337620735168457 c0,-5.185757637023926 4.135136604309082,-8.162517547607422 11.34131908416748,-8.162517547607422 c7.408225059509277,0 12.822964668273926,5.024123668670654 14.479713439941406,6.734750270843506 l6.424951553344727,-6.317195892333984 c-6.034336090087891,-6.330665111541748 -12.863372802734375,-9.42864990234375 -20.904664993286133,-9.42864990234375 c-12.243776321411133,0 -20.47364044189453,6.882915019989014 -20.47364044189453,17.13320541381836 c0,3.2596192359924316 0,13.173171043395996 16.45973014831543,17.22749137878418 l7.650676250457764,1.8049131631851196 c7.098426818847656,1.9530776739120483 10.546618461608887,5.387800216674805 10.546618461608887,10.47927188873291 c0,5.966988563537598 -5.751476764678955,10.129064559936523 -13.96787166595459,10.129064559936523 c-8.795583724975586,0 -14.210323333740234,-6.047805309295654 -15.82666301727295,-8.081700325012207 l-6.34413480758667,6.249847888946533 c4.323709487915039,4.929837226867676 11.704995155334473,10.77560043334961 22.265085220336914,10.77560043334961 c13.15970230102539,0 23.08672332763672,-8.216395378112793 23.08672332763672,-19.09975242614746 c0,-9.751917839050293 -6.734750270843506,-16.513607025146484 -19.59812355041504,-19.54424476623535 " stroke-width="0" id="svg_6" fill="#c6c6cd"/><path d="m480.38836669921875,27.673800706863403 l-6.990670680999756,-1.5894010066986084 c-7.515981197357178,-1.616340160369873 -8.081700325012207,-6.734750270843506 -8.081700325012207,-8.337620735168457 c0,-5.185757637023926 4.135136604309082,-8.162517547607422 11.34131908416748,-8.162517547607422 c7.408225059509277,0 12.822964668273926,5.024123668670654 14.466243743896484,6.734750270843506 l6.438421726226807,-6.317195892333984 c-6.034336090087891,-6.330665111541748 -12.876843452453613,-9.42864990234375 -20.904664993286133,-9.42864990234375 c-12.243776321411133,0 -20.47364044189453,6.882915019989014 -20.47364044189453,17.13320541381836 c0,3.2596192359924316 0,13.173171043395996 16.45973014831543,17.22749137878418 l7.691084861755371,1.7645045518875122 c7.084957599639893,1.9530776739120483 10.533149719238281,5.387800216674805 10.533149719238281,10.47927188873291 c0,5.966988563537598 -5.738007545471191,10.129064559936523 -13.954401969909668,10.129064559936523 c-8.795583724975586,0 -14.223793029785156,-6.047805309295654 -15.82666301727295,-8.081700325012207 l-6.438421726226807,6.317195892333984 c4.323709487915039,4.929837226867676 11.704995155334473,10.77560043334961 22.265085220336914,10.77560043334961 c13.15970230102539,0 23.08672332763672,-8.216395378112793 23.08672332763672,-19.09975242614746 c0,-9.751917839050293 -6.734750270843506,-16.513607025146484 -19.59812355041504,-19.54424476623535 " stroke-width="0" id="svg_7" fill="#c6c6cd"/><path d="m337.3018493652344,39.74246525764465 l10.452332496643066,-19.934860229492188 l10.465802192687988,19.934860229492188 zm10.452332496643066,-38.56317901611328 c-0.3596356511116028,0.00269390014000237 -0.6842506527900696,0.21281811594963074 -0.8351090550422668,0.5387800335884094 l-33.28313446044922,63.468284606933594 h10.331107139587402 l8.512724876403809,-16.257686614990234 h30.535358428955078 l8.526193618774414,16.257686614990234 h10.31763744354248 l-33.26966857910156,-63.468284606933594 c-0.15355230867862701,-0.32326799631118774 -0.47682031989097595,-0.532045304775238 -0.8351090550422668,-0.5387800335884094 z" stroke-width="0" id="svg_8" fill="#c6c6cd"/><path d="m94.78350830078125,41.4530975818634 l6.45189094543457,6.492299556732178 l22.33243179321289,-22.453657150268555 l-6.465360641479492,-6.492299556732178 z" stroke-width="0" id="svg_9" fill="#c6c6cd"/></g></g></svg>