<svg height="224" width="214.09101008" xmlns="http://www.w3.org/2000/svg" xmlns:xlink="http://www.w3.org/1999/xlink"><rect id="backgroundrect" width="100%" height="100%" x="0" y="0" fill="none" stroke="none"/><linearGradient id="a" x1="0.9184431250193463" x2="0.28235454597442144" y1="0.4031104568499015" y2="0.8164104803422726"><stop offset=".18" stop-color="#0052cc"/><stop offset="1" stop-color="#2684ff"/></linearGradient><linearGradient id="b" x1="114.6500015258789" x2="160.80999755859375" xlink:href="#a" y1="85.7699966430664" y2="131.9199981689453"/><g class="currentLayer" style=""><title>Layer 1</title><path d="m214.06 105.73-96.39-96.39-9.34-9.34-72.56 72.56-33.18 33.17a8.89 8.89 0 0 0 0 12.54l66.29 66.29 39.45 39.44 72.55-72.56 1.13-1.12 32.05-32a8.87 8.87 0 0 0 0-12.59zm-105.73 39.39-33.12-33.12 33.12-33.12 33.11 33.12z" fill="#2684ff" id="svg_1"/><path d="m108.33 78.88a55.75 55.75 0 0 1 -.24-78.61l-72.47 72.44 39.44 39.44z" fill="url(#a)" id="svg_2"/><path d="m141.53 111.91-33.2 33.21a55.77 55.77 0 0 1 0 78.86l72.67-72.63z" fill="url(#b)" id="svg_3"/></g></svg>