<svg width="199" height="141" version="1.1" xmlns="http://www.w3.org/2000/svg" xmlns:xlink="http://www.w3.org/1999/xlink" xmlns:sketch="http://www.bohemiancoding.com/sketch/ns" style=""><rect id="backgroundrect" width="100%" height="100%" x="0" y="0" fill="none" stroke="none"/>
    <!-- Generator: Sketch 3.2.2 (9983) - http://www.bohemiancoding.com/sketch -->
    <title>logo_standard</title>
    <desc>Created with Sketch.</desc>
    <defs/>
    
<g class="currentLayer" style=""><title>Layer 1</title><g id="Page-1" stroke="none" stroke-width="1" fill="#c6c6cd" fill-rule="evenodd" sketch:type="MSPage" class="selected" fill-opacity="1">
        <g id="logos" sketch:type="MSArtboardGroup" fill="#c6c6cd" fill-opacity="1">
            <path d="M0.746002197265625,3.3430023193359375 L30.805999755859375,3.3430023193359375 L30.805999755859375,84.01699829101562 C30.805999755859375,96.78399658203125 36.64599609375,104.38900756835938 41.264007568359375,107.64900207519531 C36.375,111.9949951171875 21.43499755859375,115.79800415039062 10.297996520996094,106.56199645996094 C3.7320022583007812,101.11799621582031 0.746002197265625,92.16600036621094 0.746002197265625,83.7449951171875 L0.746002197265625,3.3430023193359375 zM188.6090087890625,70.35699462890625 L188.6090087890625,61.878997802734375 L197.77700805664062,61.878997802734375 L197.77700805664062,32.13600158691406 L187.70901489257812,32.13600158691406 C183.843994140625,14.278999328613281 167.94601440429688,0.8980026245117188 148.93301391601562,0.8980026245117188 C127.02999877929688,0.8980026245117188 109.27499389648438,18.65399932861328 109.27499389648438,40.555999755859375 L109.27499389648438,110.01499938964844 C115.51499938964844,110.89199829101562 122.94900512695312,109.906005859375 129.2740020751953,104.66099548339844 C135.83900451660156,99.21600341796875 138.8249969482422,90.26499938964844 138.8249969482422,81.843994140625 L138.8249969482422,79.28500366210938 L153.8380126953125,79.28500366210938 L153.8380126953125,49.54200744628906 L138.8249969482422,49.54200744628906 L138.8249969482422,40.555999755859375 L138.86099243164062,40.555999755859375 C138.86099243164062,34.99400329589844 143.3699951171875,30.485000610351562 148.93301391601562,30.485000610351562 C154.4949951171875,30.485000610351562 159.02200317382812,34.99400329589844 159.02200317382812,40.555999755859375 L159.02200317382812,70.35699462890625 C159.02200317382812,92.25900268554688 176.79598999023438,110.01499938964844 198.697998046875,110.01499938964844 L198.697998046875,80.42799377441406 C193.135986328125,80.42799377441406 188.6090087890625,75.91900634765625 188.6090087890625,70.35699462890625 zM74.76100158691406,32.13600158691406 L74.76100158691406,75.78700256347656 C74.76100158691406,78.26499938964844 72.70500183105469,80.27400207519531 70.16799926757812,80.27400207519531 C67.63099670410156,80.27400207519531 65.57499694824219,78.26499938964844 65.57499694824219,75.78700256347656 L65.57499694824219,32.13600158691406 L35.83099365234375,32.13600158691406 L35.83099365234375,83.4739990234375 C35.83099365234375,92.70899963378906 38.96299743652344,104.38900756835938 53.21600341796875,108.19200134277344 C67.48399353027344,111.99899291992188 75.76100158691406,104.11799621582031 75.76100158691406,104.11799621582031 C75.00700378417969,109.30999755859375 70.11700439453125,113.11300659179688 62.24000549316406,113.92799377441406 C56.279998779296875,114.54400634765625 48.65800476074219,112.57000732421875 44.85600280761719,110.94000244140625 L44.85600280761719,138.13900756835938 C54.54400634765625,140.99600219726562 64.79100036621094,141.91900634765625 74.81900024414062,139.97300720214844 C93.01800537109375,136.44200134277344 104.50399780273438,121.23100280761719 104.50399780273438,100.99400329589844 L104.50399780273438,32.13600158691406 L74.76100158691406,32.13600158691406 z" id="logo_standard" sketch:type="MSShapeGroup" fill="#c6c6cd" fill-opacity="1"/>
        </g>
    </g></g></svg>