<svg xmlns="http://www.w3.org/2000/svg" width="200.40659976005554" height="154.70329689979553" style=""><rect id="backgroundrect" width="153.90049507329752" height="83.46214228933984" x="0" y="13.736264407634735" fill="none" stroke="none" style="" class="selected"/><style>.st0{fill:#03363d}</style><title>golion-z-sourcefile-algae</title><g class="currentLayer" style=""><title>Layer 1</title><path class="st0" d="M92.28919219970703,41.084195375442505 v111.46516418457031 H-0.220672607421875 zM92.28919219970703,1.0989010334014893 c0,25.472110748291016 -20.67867660522461,46.10649871826172 -46.20546340942383,46.10649871826172 S-0.220672607421875,26.571011781692505 -0.220672607421875,1.0989010334014893 h92.5098648071289 zM107.52611541748047,152.54935574531555 c0,-25.472110748291016 20.67867660522461,-46.10649871826172 46.20546340942383,-46.10649871826172 c25.526784896850586,0 46.20546340942383,20.634384155273438 46.20546340942383,46.10649871826172 h-92.41092681884766 zM107.52611541748047,112.5640652179718 V1.0989010334014893 h92.5098648071289 zM159.27227020263672,247.82296109199524 c4.749169826507568,0.09872911870479584 9.399397850036621,-1.6783950328826904 12.862334251403809,-4.936455726623535 l6.332226753234863,6.8123087882995605 c-4.155523300170898,4.344081401824951 -9.993045806884766,7.50341272354126 -19.095619201660156,7.50341272354126 c-15.53374195098877,0 -25.526784896850586,-10.267827987670898 -25.526784896850586,-24.18863296508789 c-0.296823114156723,-13.130972862243652 10.190926551818848,-23.892446517944336 23.251144409179688,-24.18863296508789 h0.7915283441543579 c15.43480110168457,0 24.141611099243164,11.65003490447998 23.350086212158203,27.940338134765625 H144.92583465576172 c1.2862334251403809,6.8123087882995605 6.035402774810791,11.156390190124512 14.346450805664062,11.057661056518555 m11.081395149230957,-18.659801483154297 c-0.9894103407859802,-6.318663597106934 -4.749169826507568,-10.958931922912598 -12.268688201904297,-10.958931922912598 c-7.024813652038574,0 -11.872923851013184,3.949164628982544 -13.159157752990723,10.958931922912598 h25.42784881591797 zM-79.67032623291016,247.32930874824524 l28.00031280517578,-28.433984756469727 H-78.97773903608322 v-8.8856201171875 h40.269004821777344 v9.083078384399414 l-28.00031280517578,28.433984756469727 h28.39607810974121 v8.8856201171875 H-79.67032623291016 zM-6.849723815917969,247.82296109199524 c4.749169826507568,0.09872911870479584 9.399397850036621,-1.6783950328826904 12.763392448425293,-4.936455726623535 l6.332226753234863,6.8123087882995605 c-4.155523300170898,4.344081401824951 -9.993045806884766,7.50341272354126 -19.095619201660156,7.50341272354126 c-15.53374195098877,0 -25.526784896850586,-10.267827987670898 -25.526784896850586,-24.18863296508789 c-0.296823114156723,-13.130972862243652 10.190926551818848,-23.892446517944336 23.251144409179688,-24.18863296508789 h0.7915283441543579 c15.43480110168457,0 24.141611099243164,11.65003490447998 23.350086212158203,27.940338134765625 H-21.196178436279297 c1.2862334251403809,6.8123087882995605 6.035402774810791,11.156390190124512 14.346450805664062,11.057661056518555 M4.2316741943359375,229.16315579414368 c-0.9894103407859802,-6.318663597106934 -4.749169826507568,-10.958931922912598 -12.268688201904297,-10.958931922912598 c-7.024813652038574,0 -11.872923851013184,3.949164628982544 -13.159157752990723,10.958931922912598 h25.42784881591797 zM75.6670913696289,233.11231350898743 c0,-14.809367179870605 11.081395149230957,-24.089902877807617 23.350086212158203,-24.089902877807617 c5.936461925506592,-0.09872911870479584 11.576101303100586,2.4682278633117676 15.53374195098877,6.911037921905518 v-27.347965240478516 h9.89410400390625 v67.72816467285156 h-9.89410400390625 V249.8962643146515 c-3.8587002754211426,4.640267848968506 -9.597280502319336,7.404683589935303 -15.632683753967285,7.305954456329346 c-11.872923851013184,0 -23.251144409179688,-9.379265785217285 -23.251144409179688,-24.089902877807617 m39.37853240966797,-0.09872911870479584 c-0.19788208603858948,-8.095787048339844 -7.024813652038574,-14.513179779052734 -15.137978553771973,-14.315722465515137 c-8.113164901733398,0.19745823740959167 -14.544331550598145,7.009767055511475 -14.346450805664062,15.105555534362793 c0.19788208603858948,7.997058391571045 6.727990627288818,14.315722465515137 14.74221420288086,14.315722465515137 c8.508929252624512,0 14.74221420288086,-6.713580131530762 14.74221420288086,-15.105555534362793 M187.76729583740234,246.44074368476868 l9.003634452819824,-4.640267848968506 c2.374584913253784,4.344081401824951 7.024813652038574,6.911037921905518 11.9718656539917,6.8123087882995605 c5.639638900756836,0 8.508929252624512,-2.8631443977355957 8.508929252624512,-6.121204853057861 c0,-3.75170636177063 -5.4417572021484375,-4.541539192199707 -11.279277801513672,-5.726288795471191 c-7.915282726287842,-1.6783950328826904 -16.12738800048828,-4.245351791381836 -16.12738800048828,-13.822075843811035 c0,-7.305954456329346 7.024813652038574,-14.118263244628906 18.00726890563965,-14.01953411102295 c8.70681095123291,0 15.137978553771973,3.455518960952759 18.798795700073242,8.984349250793457 l-8.311046600341797,4.541539192199707 c-2.374584913253784,-3.455518960952759 -6.332226753234863,-5.430100917816162 -10.487750053405762,-5.331372261047363 c-5.34281587600708,0 -8.0142240524292,2.5669569969177246 -8.0142240524292,5.528830528259277 c0,3.356790065765381 4.254464626312256,4.245351791381836 10.98245620727539,5.726288795471191 c7.618459701538086,1.6783950328826904 16.325271606445312,4.146622657775879 16.325271606445312,13.822075843811035 c0,6.417392253875732 -5.639638900756836,15.00682544708252 -18.897737503051758,14.908096313476562 c-9.696221351623535,0.09872911870479584 -16.523155212402344,-3.75170636177063 -20.48079490661621,-10.662744522094727 M253.95885467529297,235.67928433418274 l-7.816341876983643,8.589432716369629 v12.044951438903809 h-9.89410400390625 v-67.72816467285156 h9.89410400390625 v44.329376220703125 l20.975500106811523,-23.003883361816406 h12.070805549621582 l-18.205150604248047,19.844552993774414 l18.699853897094727,26.558130264282227 h-11.180336952209473 zM45.78691101074219,208.9236843585968 c-11.773983001708984,0 -21.668087005615234,7.602141380310059 -21.668087005615234,20.23946762084961 v27.15050506591797 h10.091985702514648 v-25.867029190063477 c0,-7.602141380310059 4.353405475616455,-12.143681526184082 11.872923851013184,-12.143681526184082 s11.180336952209473,4.541539192199707 11.180336952209473,12.143681526184082 v25.867029190063477 h9.993045806884766 V229.16315579414368 c0.09894104301929474,-12.637327194213867 -9.795162200927734,-20.23946762084961 -21.470205307006836,-20.23946762084961 " id="svg_1"/></g></svg>